<svg xmlns="http://www.w3.org/2000/svg" xmlns:xlink="http://www.w3.org/1999/xlink" width="785.325" height="629.225" viewBox="0 0 785.325 629.225"><defs><linearGradient id="a" x1="0.487" y1="-0.392" x2="0.5" y2="1.254" gradientUnits="objectBoundingBox"><stop offset="0" stop-color="#e0e8ff" stop-opacity="0"/><stop offset="0.845" stop-color="#c7d4ff" stop-opacity="0.847"/><stop offset="1" stop-color="#c9d6fd"/></linearGradient><linearGradient id="c" x1="0.5" x2="0.5" y2="1" gradientUnits="objectBoundingBox"><stop offset="0" stop-color="#3d9bfa"/><stop offset="1" stop-color="#cbe4ff"/></linearGradient></defs><g transform="translate(-4917.576 -3054.235)"><g transform="translate(3566 -1092.308)"><g transform="translate(-1630 861.308)"><path d="M6079.467-837.235a118.435,118.435,0,0,0-97.433-59.2A118.529,118.529,0,0,0,5858.355-783.3" transform="translate(-2664.631 4335.257)" fill="none" stroke="#fff" stroke-linecap="round" stroke-linejoin="round" stroke-width="8" opacity="0.522"/><g transform="translate(3136 3298)"><path d="M1874.353,624.343a139.169,139.169,0,0,0-138.809-139.167v0a139.171,139.171,0,0,0-278.343,0v0c-.121,0-.241,0-.362,0a139.171,139.171,0,0,0,0,278.343q1.817,0,3.624-.047v.047h278.343v-.047A139.173,139.173,0,0,0,1874.353,624.343Z" transform="translate(-1317.667 -346)" fill="#f7f9ff"/><path d="M102.467,0c56.591,0,102.467,44.541,102.467,99.485s-45.876,99.485-102.467,99.485S0,154.428,0,99.485,45.876,0,102.467,0Z" transform="matrix(0.695, 0.719, -0.719, 0.695, 156.651, 155.185)" fill="url(#a)"/><path d="M266.395,314.959c-35.632,1.106-95.553-2.789-111.525-2.789C68.9,312.17,38.311,263.7,6.235,206.879S74.177,19,116.86,1.008c13.725-5.784,55.766,13.986,67.033,42.292,8.468,21.279,10.242,83.021,41.125,96.818,34.448,15.39,61.471,20.238,80.167,27.488C352.871,174.025,389,204.616,389,241.386c0,41.433-45.876,75.021-102.468,75.021A139.461,139.461,0,0,1,266.395,314.959Z" transform="translate(157.9 79.345)" fill="url(#a)"/><path d="M102.467,0c56.591,0,102.467,19.471,102.467,43.49S159.058,86.98,102.467,86.98,0,67.509,0,43.49,45.876,0,102.467,0Z" transform="translate(225.932 132.039) rotate(69)" fill="#fff" opacity="0.349"/></g></g><g transform="translate(-875)"><g transform="translate(2551 4465.507)"><path d="M232.433,14.649A19.661,19.661,0,0,0,223.193,2.64,20.271,20.271,0,0,0,213.215,0L20.082,1.013A19.8,19.8,0,0,0,19.5,40.6c.121,0,.245,0,.351,0s.22,0,.28,0l193.281-1a19.8,19.8,0,0,0,19.019-24.951Z" transform="translate(75.864 0) rotate(60)" fill="url(#c)"/><path d="M232.433,14.649A19.661,19.661,0,0,0,223.193,2.64,20.271,20.271,0,0,0,213.215,0L20.082,1.013A19.8,19.8,0,0,0,19.5,40.6c.121,0,.245,0,.351,0s.22,0,.28,0l193.281-1a19.8,19.8,0,0,0,19.019-24.951Z" transform="translate(192.426 20.303) rotate(120)" fill="url(#c)"/><path d="M547.112,157.453a19.661,19.661,0,0,0-9.241-12.009,20.271,20.271,0,0,0-9.978-2.64l-193.132,1.013a19.8,19.8,0,0,0-.581,39.589c.121,0,.245,0,.351,0s.22,0,.28,0l193.281-1a19.8,19.8,0,0,0,19.019-24.951Z" transform="translate(-314.679 -52.009)" fill="url(#c)"/><path d="M152.667,6.589c-.9,1.3-3.06,2.379-6.069,3.048a31.165,31.165,0,0,1-6.554.67L13.191,10.05C6,10.088.1,7.869,0,5.1-.05,3.756,1.256,2.487,3.676,1.524A25.985,25.985,0,0,1,12.809,0h.415L140.175.255c4.613.008,8.908.973,11.208,2.519C153.115,3.938,153.571,5.292,152.667,6.589Z" transform="translate(148.922 60.622) rotate(120)" fill="#90c5ff"/><path d="M152.667,4.395c-.9-1.532-3.06-2.811-6.069-3.6A26.564,26.564,0,0,0,140.044,0L13.191.3C6,.258.1,2.881,0,6.156-.05,7.743,1.256,9.242,3.676,10.381a22.425,22.425,0,0,0,9.132,1.8h.415l126.951-.3c4.613-.009,8.908-1.15,11.208-2.977C153.115,7.527,153.571,5.927,152.667,4.395Z" transform="translate(89.305 52.775) rotate(60)" fill="#90c5ff"/><path d="M152.667,6.509c-.9-2.27-3.06-4.164-6.069-5.336A18.485,18.485,0,0,0,140.044,0L13.191.45C6,.383.1,4.268,0,9.118c-.051,2.35,1.254,4.572,3.675,6.258a16.381,16.381,0,0,0,9.132,2.666h.415L140.175,17.6c4.613-.013,8.908-1.7,11.208-4.41A6.341,6.341,0,0,0,152.667,6.509Z" transform="translate(93.82 51.013) rotate(60)" fill="#a6d0ff"/><path d="M152.667,5.956c-.9,1.172-3.06,2.15-6.069,2.756a34.359,34.359,0,0,1-6.554.606L13.191,9.085C6,9.12.1,7.113,0,4.609-.05,3.4,1.256,2.248,3.676,1.377A28.482,28.482,0,0,1,12.809,0h.415l126.951.23c4.613.007,8.908.88,11.208,2.277C153.115,3.56,153.571,4.784,152.667,5.956Z" transform="translate(146.182 59.04) rotate(120)" fill="#aed5ff"/><path d="M152.667,6.509c-.9-2.27-3.06-4.164-6.069-5.336A18.485,18.485,0,0,0,140.044,0L13.191.45C6,.383.1,4.268,0,9.118c-.051,2.35,1.254,4.572,3.675,6.258a16.381,16.381,0,0,0,9.132,2.666h.415L140.175,17.6c4.613-.013,8.908-1.7,11.208-4.41A6.341,6.341,0,0,0,152.667,6.509Z" transform="translate(182.849 122.848) rotate(-180)" fill="#a6d0ff"/><path d="M88.853,3.788A5.927,5.927,0,0,0,85.321.683,10.758,10.758,0,0,0,81.507,0L7.677.262C3.49.223.061,2.484,0,5.307A4.391,4.391,0,0,0,2.14,8.949,9.534,9.534,0,0,0,7.455,10.5H7.7l73.887-.259a8.72,8.72,0,0,0,6.523-2.567A3.69,3.69,0,0,0,88.853,3.788Z" transform="translate(134.021 160.041) rotate(-120)" fill="#a6d0ff"/></g></g><circle cx="30.5" cy="30.5" r="30.5" transform="translate(1764 4544)" fill="#a3cdff"/><circle cx="14.5" cy="14.5" r="14.5" transform="translate(1774 4586)" fill="#a3cdff"/><circle cx="14.5" cy="14.5" r="14.5" transform="translate(1757 4543)" fill="#a3cdff"/></g><line transform="translate(5276.36 3683.46) rotate(-43)" fill="none" stroke="#60a4f5" stroke-linecap="round" stroke-linejoin="round" stroke-width="20" opacity="0.3"/><line transform="translate(5530.64 3556.54) rotate(-43)" fill="none" stroke="#60a4f5" stroke-linecap="round" stroke-linejoin="round" stroke-width="20" opacity="0.3"/><line transform="translate(5209.5 3580.5)" fill="none" stroke="#60a4f5" stroke-linecap="round" stroke-linejoin="round" stroke-width="20" opacity="0.999"/><line transform="translate(5470.225 3625.184) rotate(-43)" fill="none" stroke="#60a4f5" stroke-linecap="round" stroke-linejoin="round" stroke-width="20" opacity="0.999"/></g></svg>